# xmcd
# Copyright (c) 1998 CDDB Inc.
#
# Track frame offsets:
#	150
#	12902
#	23432
#	34515
#	53352
#	68375
#	80572
#	92490
#	104750
#	116210
#	127445
#	138370
#	150250
#	162280
#	172245
#	182527
#	195987
#	206657
#
# Disc length: 2883 seconds
#
# Revision: 1
# Processed by: cddbd v1.4PL0 Copyright (c) Steve Scherf et al.
# Submitted via: audiograbber 1.60
#
DISCID=e40b4112
DTITLE=Various Artist - Wildwest - Cowboy Melodies
DYEAR=1900
DGENRE=
TTITLE0=Lynn Anderson - Top of the World
TTITLE1=Johnny Russel - Act Naturally
TTITLE2=Faron Young - Wine me up
TTITLE3=John Denver - Rocky Mountain High
TTITLE4=Billy Jo Spears - Midnight Love
TTITLE5=La Costa Tucker - He took me for a Ride
TTITLE6=Del Reeves - Girl on the Billboard
TTITLE7=Johnny Cash - Next in Line
TTITLE8=Bobby Bare - Music City USA
TTITLE9=Porter Wagoner - Misery Loves Company
TTITLE10=Carl Smith - Hey Joe
TTITLE11=Johnny Paycheck - Take this Job and shove it
TTITLE12=Dave Dudley - Mad
TTITLE13=Johnny Cash - Get Rhythm
TTITLE14=Faron Young - Goin Steady
TTITLE15=Jean Shepherd - The Blue Tail Fly
TTITLE16=Billy Walker - Charley's Shoes
TTITLE17=Dave Dudley - Cowboys Boots
EXTD=
EXTT0=
EXTT1=
EXTT2=
EXTT3=
EXTT4=
EXTT5=
EXTT6=
EXTT7=
EXTT8=
EXTT9=
EXTT10=
EXTT11=
EXTT12=
EXTT13=
EXTT14=
EXTT15=
EXTT16=
EXTT17=
PLAYORDER=
